<svg width="104" height="45" viewBox="0 0 104 45" fill="none" xmlns="http://www.w3.org/2000/svg">
<g clip-path="url(#clip0_4656_1576)">
<path d="M102.754 0.759079C103.047 0.930529 103.29 1.17557 103.459 1.46976C103.627 1.76395 103.715 2.09701 103.714 2.43571C103.716 2.77569 103.627 3.11003 103.456 3.40432C103.287 3.69924 103.044 3.94509 102.75 4.11749C102.452 4.29035 102.114 4.38142 101.769 4.38142C101.424 4.38142 101.085 4.29035 100.787 4.11749C100.496 3.94517 100.255 3.70028 100.087 3.4069C99.9197 3.11353 99.8318 2.78177 99.8321 2.44428C99.8304 2.10433 99.9195 1.77006 100.09 1.47568C100.258 1.18083 100.501 0.934952 100.794 0.762508C101.091 0.585824 101.431 0.494996 101.777 0.500213C102.12 0.496587 102.458 0.58607 102.754 0.759079ZM102.57 3.79519C102.808 3.65662 103.006 3.45815 103.143 3.21959C103.281 2.98104 103.353 2.71075 103.353 2.43571C103.354 2.16162 103.282 1.89215 103.143 1.65568C103.006 1.42043 102.809 1.22486 102.573 1.08823C102.33 0.948937 102.055 0.875621 101.775 0.875621C101.495 0.875621 101.219 0.948937 100.976 1.08823C100.738 1.22634 100.541 1.42439 100.403 1.66254C100.264 1.89964 100.192 2.16966 100.193 2.44428C100.193 2.6497 100.233 2.85321 100.312 3.04303C100.391 3.23286 100.506 3.40523 100.652 3.55016C100.799 3.69509 100.972 3.80971 101.163 3.88737C101.354 3.96504 101.558 4.00421 101.764 4.00262C102.047 4.00569 102.325 3.93285 102.57 3.79176V3.79519ZM102.501 2.46485C102.432 2.57237 102.332 2.65617 102.214 2.70486L102.639 3.33231H102.226L101.881 2.77344H101.389V3.33231H101.028V1.43625H101.813C102.019 1.42439 102.223 1.48506 102.389 1.60768C102.458 1.6673 102.512 1.74188 102.548 1.8257C102.583 1.90951 102.599 2.00031 102.594 2.09113C102.598 2.22508 102.562 2.35723 102.492 2.47171L102.501 2.46485ZM101.389 2.47171H101.813C101.929 2.47918 102.043 2.44378 102.134 2.37228C102.173 2.33729 102.203 2.29425 102.223 2.24625C102.243 2.19824 102.252 2.14645 102.25 2.09456C102.253 2.04409 102.244 1.99359 102.224 1.94713C102.204 1.90067 102.173 1.85956 102.134 1.82712C102.041 1.76012 101.927 1.72741 101.813 1.73454H101.389V2.47171Z" fill="#1E1E1C"/>
<path d="M32.3062 17.9164L32.332 22.4954C32.3338 22.775 32.2801 23.0523 32.1739 23.3111C32.0677 23.57 31.9112 23.8054 31.7134 24.0038C31.5156 24.2022 31.2803 24.3596 31.0211 24.467C30.762 24.5745 30.4841 24.6298 30.2034 24.6298H30.1311C29.5685 24.6298 29.0287 24.4081 28.6296 24.013C28.2305 23.6179 28.0044 23.0816 28.0008 22.5211L27.975 17.8924C27.9729 17.5069 27.8652 17.1293 27.6635 16.8003L22.0934 7.70058C21.8967 7.37851 21.7897 7.01001 21.7835 6.63305C21.7773 6.25609 21.8721 5.8843 22.058 5.55596C22.244 5.22763 22.5145 4.95463 22.8416 4.76509C23.1688 4.57555 23.5407 4.47631 23.9191 4.47761H24.0912C24.4584 4.47789 24.8194 4.57275 25.139 4.75297C25.4586 4.9332 25.726 5.19268 25.9152 5.50622L28.4086 9.62065C29.3998 11.2596 31.0362 11.2664 32.0446 9.6378L34.6171 5.4805C34.9138 5.00151 35.3893 4.65953 35.939 4.5298C36.4887 4.40008 37.0677 4.49323 37.5485 4.78877C38.0293 5.0843 38.3725 5.55802 38.5027 6.1057C38.633 6.65338 38.5395 7.23016 38.2428 7.70916L32.6211 16.7866C32.4122 17.1246 32.3031 17.5143 32.3062 17.9112" fill="#077534"/>
<path d="M42.8215 7.40026C44.7717 5.45161 47.1607 4.48015 49.9885 4.48587C52.7991 4.48015 55.1795 5.43733 57.1297 7.3574C59.0799 9.27747 60.055 11.6776 60.055 14.5577C60.055 17.4149 59.0799 19.8087 57.1297 21.7391C55.1795 23.6694 52.7991 24.6329 49.9885 24.6294C47.1745 24.6294 44.7901 23.6688 42.8353 21.7476C40.8805 19.8264 39.9025 17.4298 39.9014 14.5577C39.9014 11.737 40.8765 9.3529 42.8267 7.4054L42.8215 7.40026ZM46.0394 18.8161C47.0873 19.8633 48.5096 20.4532 49.9939 20.4561C51.4782 20.459 52.9029 19.8747 53.9549 18.8315C55.0172 17.7458 55.5483 16.3212 55.5483 14.5577C55.5483 12.8147 54.9942 11.3953 53.8861 10.2992C52.7779 9.20318 51.4787 8.65402 49.9885 8.65173C49.251 8.63982 48.5188 8.77951 47.8379 9.06209C47.1569 9.34466 46.5417 9.76405 46.0307 10.2941C44.9409 11.3901 44.396 12.8113 44.396 14.5577C44.396 16.304 44.9409 17.7235 46.0307 18.8161" fill="#077534"/>
<path d="M71.8957 17.9164L71.9284 22.4954C71.9303 22.775 71.8765 23.0523 71.7704 23.3111C71.6642 23.57 71.5077 23.8054 71.3099 24.0038C71.112 24.2022 70.8768 24.3596 70.6176 24.467C70.3585 24.5745 70.0805 24.6298 69.7998 24.6298H69.7276C69.1652 24.6293 68.6259 24.4074 68.2272 24.0124C67.8284 23.6174 67.6026 23.0813 67.599 22.5211L67.5732 17.8924C67.57 17.5071 67.4624 17.1297 67.2617 16.8003L61.6847 7.70058C61.4886 7.3795 61.3817 7.01227 61.3749 6.63648C61.3681 6.26069 61.4616 5.88986 61.646 5.56194C61.8303 5.23403 62.0989 4.96082 62.424 4.77028C62.7492 4.57975 63.1194 4.47875 63.4967 4.47761H63.6687C64.036 4.47789 64.3969 4.57274 64.7165 4.75297C65.0361 4.9332 65.3035 5.19267 65.4928 5.50622L67.9861 9.62065C68.9773 11.2613 70.6138 11.2681 71.6221 9.63951L74.2033 5.48222C74.4999 5.00345 74.9753 4.66169 75.5249 4.53212C76.0745 4.40255 76.6532 4.4958 77.1338 4.79133C77.6143 5.08687 77.9574 5.5605 78.0874 6.10802C78.2175 6.65553 78.1239 7.2321 77.8272 7.71087L72.2124 16.7866C72.0037 17.1248 71.8941 17.5143 71.8957 17.9112" fill="#077534"/>
<path d="M82.4133 7.40026C84.3635 5.45161 86.7519 4.48015 89.5786 4.48586C92.3915 4.48586 94.7713 5.4459 96.718 7.36597C98.6648 9.28604 99.6399 11.6861 99.6434 14.5662C99.6434 17.4235 98.6683 19.8173 96.718 21.7476C94.7678 23.678 92.388 24.6432 89.5786 24.6432C86.7668 24.6432 84.383 23.6826 82.427 21.7613C80.4711 19.8401 79.4954 17.4389 79.5 14.5577C79.5 11.737 80.4751 9.3529 82.4253 7.4054L82.4133 7.40026ZM85.638 18.8161C86.6859 19.8633 88.1083 20.4532 89.5926 20.4561C91.0768 20.459 92.5015 19.8747 93.5535 18.8315C94.6147 17.7458 95.1453 16.3211 95.1453 14.5577C95.1453 12.8147 94.5912 11.3953 93.483 10.2992C92.9713 9.7791 92.3606 9.36592 91.6866 9.08384C91.0126 8.80177 90.2889 8.65648 89.5579 8.65648C88.8269 8.65648 88.1032 8.80177 87.4292 9.08384C86.7553 9.36592 86.1446 9.7791 85.6328 10.2992C84.5419 11.3953 83.997 12.8147 83.9981 14.5577C83.9993 16.3006 84.5442 17.7201 85.6328 18.8161" fill="#077534"/>
<path d="M10.2302 19.7115H9.90325L9.67438 20.5121C9.80344 20.5121 9.9325 20.5241 10.0633 20.5241C10.1941 20.5241 10.3111 20.5241 10.4332 20.5138L10.2302 19.7115ZM10.2027 17.6543L9.90841 17.6629L9.20117 18.2097V20.5241L9.62964 20.5138V20.5018L9.84818 19.6155L10.268 19.6069L10.478 20.5035V20.5241H10.8961V18.2097L10.2027 17.6543ZM10.2612 19.3944H9.86023V18.3658H10.2612V19.3944Z" fill="#077534"/>
<path d="M12.8957 9.36685L12.5877 9.7423L12.2057 10.3886L11.9011 11.0743L11.6551 11.7858L11.4572 12.5093L11.2954 13.2447L11.1681 13.987L11.0666 14.7293L10.9891 15.4785L10.9358 16.2277L10.8979 16.9786V18.0826L10.3249 17.7003V17.5871H10.0117V17.5751L10.0203 17.3283V17.2546H10.1528V17.4534H10.3404L10.3559 16.982V16.8346H10.0341V16.8226L10.0461 16.5757V16.5037H10.1804L10.17 16.7025H10.3593L10.3851 16.2311V16.0854H10.0737V16.0734L10.0943 15.7579H10.2268L10.213 15.9585H10.4023L10.4402 15.4871L10.454 15.3396H10.1339V15.3276L10.1649 15.0088H10.2991L10.2784 15.2076H10.4677L10.5159 14.7293L10.5348 14.5836H10.2148V14.575L10.2578 14.2579H10.3903L10.3645 14.455H10.5538L10.6192 13.9887L10.6432 13.843H10.3249V13.831L10.3782 13.5156H10.5125L10.478 13.7127H10.6691L10.7551 13.2464L10.7843 13.1024H10.454V13.0904L10.5211 12.7784H10.6553L10.6105 12.9721H10.8016L10.9065 12.511L10.9409 12.3687H10.6209V12.3584L10.7052 12.0498H10.8411L10.7878 12.2418H10.9771L11.1078 11.7875L11.1491 11.6469H10.8291L10.8411 11.6435L10.9444 11.3401H11.0769L11.0132 11.5304H11.1853L11.3453 11.0846L11.4004 10.9475H11.0855V10.9372L11.2128 10.644H11.3453L11.2644 10.8275H11.4554L11.6551 10.3972L11.7239 10.2669H11.4055V10.2566L11.5656 9.97888H11.7015L11.6 10.1503H11.791L12.0457 9.7423L12.13 9.62229H11.803V9.61372L12.0044 9.36171H12.1369L12.0113 9.516H12.1988L12.512 9.16113C12.6049 9.20913 12.6961 9.25885 12.7873 9.312L12.8888 9.372" fill="#077534"/>
<path d="M10.0801 17.2964H9.94759V17.0959H9.73421L9.74454 17.5999V17.641L9.18529 18.0679L9.19389 17.5399L9.17496 16.789L9.13711 16.0381L9.08032 15.2872L9.00116 14.5398L8.89792 13.794L8.76714 13.0534L8.60367 12.3214L8.40922 11.5962L8.1511 10.8865L7.84137 10.2008L7.45419 9.55445L7.22705 9.28187C7.33374 9.22016 7.44215 9.16301 7.55228 9.11044L7.6125 9.08301L7.64004 9.11044H7.98419V9.11901L8.1924 9.36245H8.06507L7.93773 9.20816H7.72952L8.03581 9.6076L8.1012 9.7036H8.44536V9.71217L8.61743 9.98818H8.48321L8.38169 9.81675H8.17519L8.41954 10.2539L8.47117 10.3585H8.81532V10.3688L8.94954 10.6602H8.81704L8.73445 10.4785H8.52623L8.72412 10.9414L8.76542 11.0494H9.10957V11.0614L9.21798 11.3631H9.08376L9.01837 11.1745H8.81016L8.96847 11.6528L9.00289 11.7625H9.34704V11.7745L9.44168 12.0848H9.30746L9.25412 11.8911H9.04763L9.17496 12.3763L9.20249 12.4911H9.54665V12.5031L9.61376 12.8117H9.4761L9.44168 12.6197H9.22487L9.32983 13.1117L9.35048 13.2249H9.69464V13.2386L9.75142 13.5523H9.61376L9.57934 13.3569H9.37457L9.45717 13.854L9.47438 13.9689H9.81853V13.9792L9.86327 14.2981H9.73077L9.70324 14.0992H9.4933L9.55869 14.5981L9.57246 14.7146H9.91661V14.7249L9.94587 15.0404H9.81337L9.78584 14.8466H9.57934L9.62753 15.3472L9.63785 15.4621H9.982V15.4741L10.0078 15.793H9.87359L9.85811 15.5958H9.65162L9.68775 16.0947V16.213H10.0319V16.225L10.044 16.4718V16.5438H9.90973L9.90113 16.345H9.70324L9.72733 16.8473V16.9639H10.0715V16.9759V17.2227L10.0801 17.2964Z" fill="#077534"/>
<path d="M2.92531 7.40026C4.87552 5.45161 7.26452 4.48015 10.0923 4.48586C12.9041 4.48586 15.2833 5.4459 17.2301 7.36597C19.1768 9.28604 20.1519 11.6861 20.1554 14.5662C20.1554 17.4235 19.1803 19.8173 17.2301 21.7476C15.2799 23.678 12.8989 24.6386 10.0872 24.6295C7.27427 24.6295 4.88985 23.6688 2.93391 21.7476C0.977971 19.8264 0 17.4298 0 14.5577C0 11.7336 0.975103 9.34776 2.92531 7.40026ZM6.13799 18.811C6.64873 19.3413 7.26386 19.7609 7.94488 20.0435C8.62589 20.3261 9.35813 20.4656 10.0958 20.4533C10.8341 20.4715 11.5681 20.3363 12.251 20.0561C12.9339 19.776 13.5507 19.3572 14.0621 18.8264C15.1187 17.7406 15.6464 16.3177 15.6452 14.5577C15.6452 12.8147 15.0912 11.3953 13.983 10.2992C13.4793 9.77657 12.8742 9.36145 12.2045 9.07911C11.5348 8.79677 10.8144 8.65311 10.0872 8.65687C9.34959 8.64496 8.61747 8.78465 7.93651 9.06723C7.25556 9.3498 6.64038 9.76919 6.12938 10.2992C5.03956 11.3953 4.49465 12.8147 4.49465 14.5577C4.49465 16.3006 5.03956 17.7201 6.12938 18.8161" fill="#BE1732"/>

</g>
<!-- <path d="M19.711 38.3932V41.6775H24.09V42.3574H19.0196V33.945H24.09V34.6365H19.711V37.7133H23.2258V38.3932H19.711ZM33.1416 42.3574L29.5693 33.945H30.3183L33.4297 41.3203H33.4874L36.5988 33.945H37.3478L33.7754 42.3574H33.1416ZM44.0271 38.3932V41.6775H48.4062V42.3574H43.3357V33.945H48.4062V34.6365H44.0271V37.7133H47.5419V38.3932H44.0271ZM55.4987 35.2127V42.3574H54.8073V33.945H55.4411L60.6844 41.0898V33.945H61.3759V42.3574H60.7421L55.4987 35.2127ZM73.6519 34.6365H70.8862V42.3574H70.1947V34.6365H67.429V33.945H73.6519V34.6365ZM81.8293 33.7722C83.3274 33.7722 84.0764 34.8093 84.0764 34.8093L83.7883 35.3855C83.7883 35.3855 83.0969 34.4636 81.8293 34.4636C80.6769 34.4636 80.1007 35.0398 80.1007 35.7889C80.1007 37.7479 84.4221 37.6327 84.4221 40.1679C84.4221 41.6084 83.5002 42.5303 81.7717 42.5303C80.0431 42.5303 79.1212 41.3779 79.1212 41.3779L79.4093 40.7441C79.4093 40.7441 80.2736 41.8389 81.7717 41.8389C83.0969 41.8389 83.7307 41.205 83.7307 40.1679C83.7307 38.2089 79.4093 38.3241 79.4093 35.7889C79.4093 34.6941 80.3312 33.7722 81.8293 33.7722Z" fill="black"/> -->
<text x="15" y="42" font-family="Arial, sans-serif" font-size="14" font-weight="" fill="black">
   Events App
</text>
<defs>

<clipPath id="clip0_4656_1576">
<rect width="103.714" height="24.1294" fill="white" transform="translate(0 0.5)"/>
</clipPath>

</defs>
</svg>
