<svg width="78" height="36" viewBox="0 0 78 36" fill="none" xmlns="http://www.w3.org/2000/svg">
<g clip-path="url(#clip0_5469_112540)">
<path d="M77.2041 1.14664C77.4232 1.27954 77.6048 1.4695 77.7307 1.69755C77.8567 1.92561 77.9225 2.18379 77.9217 2.44635C77.9231 2.7099 77.8565 2.96908 77.7288 3.19721C77.6027 3.42583 77.4209 3.61641 77.2015 3.75005C76.9787 3.88406 76.7255 3.95465 76.4677 3.95465C76.2099 3.95465 75.9568 3.88406 75.734 3.75005C75.5163 3.61647 75.336 3.42664 75.2108 3.19921C75.0857 2.97179 75.0199 2.71462 75.0202 2.453C75.0189 2.18947 75.0855 1.93034 75.2131 1.70214C75.3387 1.47357 75.5201 1.28297 75.7391 1.1493C75.9609 1.01233 76.2152 0.941922 76.4735 0.945966C76.7301 0.943155 76.9827 1.01252 77.2041 1.14664ZM77.0664 3.50021C77.2447 3.39279 77.3925 3.23894 77.4952 3.05401C77.5979 2.86909 77.6518 2.65956 77.6516 2.44635C77.6529 2.23388 77.5987 2.02499 77.4947 1.84168C77.3922 1.65932 77.2455 1.5077 77.069 1.4018C76.8875 1.29381 76.6817 1.23698 76.4722 1.23698C76.2628 1.23698 76.057 1.29381 75.8755 1.4018C75.6974 1.50886 75.5497 1.66238 75.4472 1.84699C75.3432 2.0308 75.289 2.24011 75.2903 2.453C75.2897 2.61223 75.3198 2.76999 75.3787 2.91714C75.4376 3.0643 75.5241 3.19791 75.6334 3.31026C75.7426 3.42261 75.8723 3.51147 76.0149 3.57167C76.1576 3.63188 76.3104 3.66225 76.4645 3.66101C76.6757 3.66339 76.8837 3.60693 77.0664 3.49755V3.50021ZM77.015 2.46894C76.9636 2.55229 76.8886 2.61725 76.8002 2.655L77.1179 3.14139H76.8092L76.552 2.70816H76.1841V3.14139H75.914V1.67157H76.5005C76.6548 1.66238 76.8073 1.70941 76.9314 1.80447C76.9829 1.85069 77.0235 1.9085 77.0501 1.97347C77.0766 2.03844 77.0884 2.10883 77.0844 2.17923C77.0872 2.28307 77.0608 2.38552 77.0086 2.47426L77.015 2.46894ZM76.1841 2.47426H76.5005C76.5871 2.48005 76.6728 2.4526 76.741 2.39718C76.7698 2.37005 76.7925 2.33669 76.8074 2.29948C76.8223 2.26227 76.8291 2.22212 76.8272 2.18189C76.8296 2.14277 76.823 2.10362 76.8081 2.06761C76.7931 2.03159 76.7701 1.99972 76.741 1.97457C76.6713 1.92264 76.5863 1.89728 76.5005 1.90281H76.1841V2.47426Z" fill="white"/>
<path d="M24.5483 14.4469L24.5676 17.9965C24.5689 18.2133 24.5288 18.4282 24.4494 18.6289C24.3701 18.8296 24.2531 19.012 24.1053 19.1658C23.9574 19.3196 23.7815 19.4416 23.5878 19.5249C23.3941 19.6082 23.1864 19.6511 22.9766 19.6511H22.9226C22.5021 19.6511 22.0986 19.4792 21.8003 19.1729C21.502 18.8667 21.333 18.4509 21.3303 18.0164L21.311 14.4283C21.3095 14.1295 21.229 13.8368 21.0782 13.5817L16.9149 6.52766C16.7679 6.27799 16.688 5.99233 16.6833 5.70012C16.6787 5.4079 16.7495 5.11969 16.8885 4.86516C17.0275 4.61064 17.2297 4.39902 17.4742 4.25208C17.7187 4.10515 17.9967 4.02823 18.2796 4.02923H18.4082C18.6827 4.02945 18.9524 4.10298 19.1913 4.24269C19.4302 4.3824 19.63 4.58355 19.7715 4.8266L21.6351 8.01609C22.376 9.28656 23.5991 9.29188 24.3528 8.02938L26.2756 4.80667C26.4973 4.43535 26.8527 4.17025 27.2636 4.06969C27.6745 3.96913 28.1072 4.04134 28.4666 4.27044C28.8259 4.49954 29.0825 4.86676 29.1798 5.29131C29.2772 5.71587 29.2073 6.16299 28.9855 6.53431L24.7837 13.5711C24.6276 13.8331 24.546 14.1352 24.5483 14.4429" fill="white"/>
<path d="M32.4078 6.29488C33.8655 4.78431 35.6511 4.03123 37.7647 4.03566C39.8654 4.03123 41.6446 4.77323 43.1022 6.26166C44.5599 7.75008 45.2887 9.61062 45.2887 11.8433C45.2887 14.0582 44.5599 15.9138 43.1022 17.4102C41.6446 18.9066 39.8654 19.6535 37.7647 19.6508C35.6614 19.6508 33.8792 18.9062 32.4181 17.4169C30.957 15.9276 30.2261 14.0697 30.2252 11.8433C30.2252 9.65669 30.954 7.80856 32.4117 6.29887L32.4078 6.29488ZM34.8129 15.1444C35.5962 15.9562 36.6593 16.4135 37.7687 16.4157C38.8781 16.418 39.943 15.965 40.7293 15.1563C41.5233 14.3147 41.9203 13.2103 41.9203 11.8433C41.9203 10.4922 41.5061 9.39178 40.6778 8.54214C39.8495 7.6925 38.8785 7.26679 37.7647 7.26502C37.2134 7.25578 36.6662 7.36407 36.1572 7.58312C35.6483 7.80217 35.1885 8.12728 34.8065 8.53815C33.9919 9.3878 33.5847 10.4895 33.5847 11.8433C33.5847 13.197 33.9919 14.2974 34.8065 15.1444" fill="white"/>
<path d="M54.1398 14.4469L54.1642 17.9966C54.1656 18.2133 54.1254 18.4283 54.0461 18.6289C53.9667 18.8296 53.8498 19.0121 53.7019 19.1659C53.554 19.3197 53.3782 19.4417 53.1845 19.525C52.9908 19.6082 52.783 19.6511 52.5732 19.6511H52.5192C52.0989 19.6508 51.6958 19.4787 51.3978 19.1725C51.0997 18.8663 50.931 18.4508 50.9282 18.0165L50.909 14.4283C50.9066 14.1296 50.8262 13.8371 50.6762 13.5818L46.5077 6.52772C46.3611 6.27882 46.2812 5.99414 46.2761 5.70283C46.2711 5.41153 46.341 5.12406 46.4788 4.86986C46.6166 4.61566 46.8173 4.40387 47.0603 4.25617C47.3034 4.10847 47.5801 4.03017 47.862 4.02929H47.9907C48.2651 4.02951 48.5349 4.10304 48.7738 4.24275C49.0127 4.38246 49.2125 4.5836 49.354 4.82666L51.2176 8.01614C51.9585 9.28795 53.1816 9.29327 53.9353 8.03076L55.8645 4.80806C56.0862 4.43692 56.4416 4.17199 56.8523 4.07155C57.2631 3.97111 57.6957 4.04339 58.0549 4.27249C58.414 4.50159 58.6704 4.86874 58.7676 5.29317C58.8648 5.7176 58.7949 6.16455 58.5732 6.53569L54.3764 13.5712C54.2205 13.8333 54.1385 14.1353 54.1398 14.443" fill="white"/>
<path d="M62.0007 6.29488C63.4584 4.78431 65.2436 4.03123 67.3563 4.03566C69.4587 4.03566 71.2375 4.77988 72.6926 6.2683C74.1476 7.75673 74.8765 9.61726 74.879 11.8499C74.879 14.0648 74.1502 15.9205 72.6926 17.4169C71.2349 18.9133 69.4562 19.6615 67.3563 19.6615C65.2547 19.6615 63.4729 18.9168 62.011 17.4275C60.5491 15.9382 59.8198 14.0768 59.8233 11.8433C59.8233 9.65669 60.5521 7.80856 62.0097 6.29887L62.0007 6.29488ZM64.411 15.1444C65.1942 15.9562 66.2574 16.4135 67.3668 16.4157C68.4761 16.418 69.541 15.965 70.3273 15.1563C71.1204 14.3147 71.517 13.2103 71.517 11.8433C71.517 10.4922 71.1029 9.39178 70.2746 8.54214C69.8921 8.13895 69.4356 7.81865 68.9319 7.59999C68.4281 7.38133 67.8872 7.2687 67.3409 7.2687C66.7945 7.2687 66.2536 7.38133 65.7498 7.59999C65.2461 7.81865 64.7896 8.13895 64.4071 8.54214C63.5917 9.39178 63.1844 10.4922 63.1853 11.8433C63.1861 13.1944 63.5934 14.2947 64.4071 15.1444" fill="white"/>
<path d="M8.04891 15.8384H7.80454L7.63348 16.459C7.72994 16.459 7.8264 16.4683 7.92415 16.4683C8.0219 16.4683 8.10936 16.4683 8.20068 16.4603L8.04891 15.8384ZM8.02833 14.2437L7.8084 14.2503L7.27979 14.6742V16.4683L7.60004 16.4603V16.451L7.76338 15.764L8.0772 15.7573L8.23412 16.4524V16.4683H8.54665V14.6742L8.02833 14.2437ZM8.07206 15.5925H7.77238V14.7952H8.07206V15.5925Z" fill="white"/>
<path d="M10.0411 7.81914L9.81088 8.11018L9.52535 8.6112L9.2977 9.14278L9.11378 9.69429L8.96587 10.2551L8.84497 10.8252L8.7498 11.4007L8.67391 11.9761L8.61604 12.5569L8.57617 13.1376L8.54787 13.7197V14.5755L8.11958 14.2792V14.1915H7.8855V14.1822L7.89193 13.9908V13.9336H7.99096V14.0878H8.13115L8.14273 13.7223V13.6081H7.90222V13.5988L7.91122 13.4074V13.3516H8.01154L8.00382 13.5057H8.1453L8.16459 13.1403V13.0273H7.9318V13.018L7.94723 12.7735H8.04627L8.03598 12.929H8.17746L8.20575 12.5635L8.21604 12.4492H7.97682V12.4399L7.99997 12.1927H8.10029L8.08485 12.3469H8.22633L8.26234 11.9761L8.27649 11.8631H8.03726V11.8565L8.06942 11.6106H8.16845L8.14916 11.7635H8.29064L8.33951 11.402L8.35752 11.289H8.11958V11.2797L8.15945 11.0352H8.25977L8.23405 11.188H8.37681L8.44112 10.8266L8.46298 10.7149H8.21604V10.7056L8.2662 10.4638H8.36652L8.33308 10.6139H8.47584L8.5543 10.2564L8.58002 10.1461H8.3408V10.1382L8.40382 9.89895H8.50543L8.46556 10.0478H8.60703L8.70478 9.69562L8.73565 9.58665H8.49642L8.50543 9.58399L8.5826 9.34877H8.68163L8.63404 9.49628H8.76266L8.88227 9.15075L8.92343 9.04444H8.68806V9.03646L8.78324 8.80921H8.88227L8.82182 8.95141H8.96459L9.11378 8.61784L9.16523 8.51684H8.92729V8.50887L9.0469 8.29358H9.14851L9.07262 8.42647H9.21539L9.40574 8.11018L9.46876 8.01716H9.22439V8.01051L9.37487 7.81516H9.4739L9.38002 7.93476H9.52021L9.75429 7.65967C9.82374 7.69688 9.89191 7.73542 9.96007 7.77662L10.036 7.82313" fill="white"/>
<path d="M7.93641 13.9661H7.83737V13.8106H7.67789L7.68561 14.2014V14.2332L7.2676 14.5642L7.27403 14.1548L7.25989 13.5728L7.23159 12.9907L7.18915 12.4086L7.12998 11.8292L7.05282 11.2511L6.95507 10.677L6.83288 10.1095L6.68755 9.54736L6.49462 8.99718L6.26311 8.4656L5.97373 7.96458L5.80396 7.75328C5.8837 7.70544 5.96472 7.66114 6.04704 7.62038L6.09205 7.59912L6.11263 7.62038H6.36986V7.62703L6.52549 7.81574H6.43031L6.33514 7.69613H6.17951L6.40845 8.00578L6.45732 8.0802H6.71456V8.08685L6.84317 8.30081H6.74285L6.66697 8.16791H6.51263L6.69526 8.5068L6.73385 8.58786H6.99108V8.59583L7.0914 8.82176H6.99237L6.93063 8.68089H6.77501L6.92291 9.0397L6.95378 9.12343H7.21101V9.13273L7.29204 9.36663H7.19172L7.14285 9.22044H6.98722L7.10555 9.59122L7.13127 9.67627H7.3885V9.68557L7.45924 9.92612H7.35892L7.31905 9.77594H7.16471L7.25989 10.152L7.28047 10.2411H7.5377V10.2504L7.58786 10.4896H7.48496L7.45924 10.3407H7.29719L7.37564 10.7222L7.39108 10.8099H7.64831V10.8205L7.69075 11.0637H7.58786L7.56213 10.9122H7.40908L7.47082 11.2976L7.48368 11.3866H7.74091V11.3946L7.77435 11.6418H7.67532L7.65474 11.4876H7.49783L7.5467 11.8744L7.55699 11.9647H7.81422V11.9727L7.83609 12.2172H7.73705L7.71647 12.0671H7.56213L7.59815 12.4551L7.60586 12.5441H7.8631V12.5535L7.88239 12.8006H7.78207L7.77049 12.6478H7.61615L7.64316 13.0345V13.1262H7.90039V13.1355L7.9094 13.3269V13.3827H7.80908L7.80265 13.2286H7.65474L7.67274 13.6179V13.7083H7.92998V13.7176V13.909L7.93641 13.9661Z" fill="white"/>
<path d="M2.58881 6.29488C4.04646 4.78431 5.83208 4.03123 7.94567 4.03566C10.0473 4.03566 11.8256 4.77988 13.2807 6.2683C14.7357 7.75673 15.4646 9.61726 15.4671 11.8499C15.4671 14.0648 14.7383 15.9205 13.2807 17.4169C11.823 18.9133 10.0434 19.6579 7.94181 19.6508C5.83937 19.6508 4.05718 18.9062 2.59524 17.4169C1.13331 15.9276 0.402344 14.0697 0.402344 11.8433C0.402344 9.65403 1.13117 7.80457 2.58881 6.29488ZM4.99007 15.1404C5.37182 15.5515 5.83159 15.8768 6.3406 16.0959C6.84961 16.3149 7.39691 16.4231 7.94824 16.4135C8.50007 16.4276 9.04869 16.3228 9.55912 16.1056C10.0696 15.8885 10.5306 15.5638 10.9128 15.1523C11.7025 14.3107 12.097 13.2076 12.0961 11.8433C12.0961 10.4922 11.682 9.39178 10.8537 8.54214C10.4772 8.13698 10.025 7.81518 9.52439 7.59632C9.0238 7.37745 8.48536 7.26609 7.94181 7.269C7.39053 7.25977 6.84332 7.36806 6.33435 7.58711C5.82538 7.80616 5.36558 8.13127 4.98364 8.54214C4.16907 9.39178 3.76179 10.4922 3.76179 11.8433C3.76179 13.1944 4.16907 14.2947 4.98364 15.1444" fill="white"/>
</g>
<path d="M15.1885 30.0183V32.5643H18.5831V33.0913H14.6525V26.5701H18.5831V27.1061H15.1885V29.4912H17.9131V30.0183H15.1885ZM25.5998 33.0913L22.8305 26.5701H23.4112L25.8231 32.2873H25.8678L28.2798 26.5701H28.8604L26.0911 33.0913H25.5998ZM34.0382 30.0183V32.5643H37.4328V33.0913H33.5022V26.5701H37.4328V27.1061H34.0382V29.4912H36.7628V30.0183H34.0382ZM42.9309 27.5527V33.0913H42.3949V26.5701H42.8862L46.9508 32.1087V26.5701H47.4868V33.0913H46.9955L42.9309 27.5527ZM57.0031 27.1061H54.8591V33.0913H54.3231V27.1061H52.1792V26.5701H57.0031V27.1061ZM63.3422 26.4361C64.5035 26.4361 65.0841 27.2401 65.0841 27.2401L64.8608 27.6867C64.8608 27.6867 64.3248 26.9721 63.3422 26.9721C62.4488 26.9721 62.0022 27.4187 62.0022 27.9994C62.0022 29.518 65.3521 29.4287 65.3521 31.394C65.3521 32.5107 64.6375 33.2253 63.2975 33.2253C61.9575 33.2253 61.2429 32.332 61.2429 32.332L61.4662 31.8407C61.4662 31.8407 62.1362 32.6893 63.2975 32.6893C64.3248 32.6893 64.8161 32.198 64.8161 31.394C64.8161 29.8754 61.4662 29.9647 61.4662 27.9994C61.4662 27.1507 62.1808 26.4361 63.3422 26.4361Z" fill="white"/>
<defs>
<clipPath id="clip0_5469_112540">
<rect width="77.5194" height="18.705" fill="white" transform="translate(0.403076 0.945801)"/>
</clipPath>
</defs>
</svg>
