<svg width="16" height="20" viewBox="0 0 20 25" fill="none" xmlns="http://www.w3.org/2000/svg">
<g>
<path d="M10.2302 19.7115H9.90325L9.67438 20.5121C9.80344 20.5121 9.9325 20.5241 10.0633 20.5241C10.1941 20.5241 10.3111 20.5241 10.4332 20.5138L10.2302 19.7115ZM10.2027 17.6543L9.90841 17.6629L9.20117 18.2097V20.5241L9.62964 20.5138V20.5018L9.84818 19.6155L10.268 19.6069L10.478 20.5035V20.5241H10.8961V18.2097L10.2027 17.6543ZM10.2612 19.3944H9.86023V18.3658H10.2612V19.3944Z" fill="#077534"/>
<path d="M12.8957 9.36685L12.5877 9.7423L12.2057 10.3886L11.9011 11.0743L11.6551 11.7858L11.4572 12.5093L11.2954 13.2447L11.1681 13.987L11.0666 14.7293L10.9891 15.4785L10.9358 16.2277L10.8979 16.9786V18.0826L10.3249 17.7003V17.5871H10.0117V17.5751L10.0203 17.3283V17.2546H10.1528V17.4534H10.3404L10.3559 16.982V16.8346H10.0341V16.8226L10.0461 16.5757V16.5037H10.1804L10.17 16.7025H10.3593L10.3851 16.2311V16.0854H10.0737V16.0734L10.0943 15.7579H10.2268L10.213 15.9585H10.4023L10.4402 15.4871L10.454 15.3396H10.1339V15.3276L10.1649 15.0088H10.2991L10.2784 15.2076H10.4677L10.5159 14.7293L10.5348 14.5836H10.2148V14.575L10.2578 14.2579H10.3903L10.3645 14.455H10.5538L10.6192 13.9887L10.6432 13.843H10.3249V13.831L10.3782 13.5156H10.5125L10.478 13.7127H10.6691L10.7551 13.2464L10.7843 13.1024H10.454V13.0904L10.5211 12.7784H10.6553L10.6105 12.9721H10.8016L10.9065 12.511L10.9409 12.3687H10.6209V12.3584L10.7052 12.0498H10.8411L10.7878 12.2418H10.9771L11.1078 11.7875L11.1491 11.6469H10.8291L10.8411 11.6435L10.9444 11.3401H11.0769L11.0132 11.5304H11.1853L11.3453 11.0846L11.4004 10.9475H11.0855V10.9372L11.2128 10.644H11.3453L11.2644 10.8275H11.4554L11.6551 10.3972L11.7239 10.2669H11.4055V10.2566L11.5656 9.97888H11.7015L11.6 10.1503H11.791L12.0457 9.7423L12.13 9.62229H11.803V9.61372L12.0044 9.36171H12.1369L12.0113 9.516H12.1988L12.512 9.16113C12.6049 9.20913 12.6961 9.25885 12.7873 9.312L12.8888 9.372" fill="#077534"/>
<path d="M10.0801 17.2964H9.94759V17.0959H9.73421L9.74454 17.5999V17.641L9.18529 18.0679L9.19389 17.5399L9.17496 16.789L9.13711 16.0381L9.08032 15.2872L9.00116 14.5398L8.89792 13.794L8.76714 13.0534L8.60367 12.3214L8.40922 11.5962L8.1511 10.8865L7.84137 10.2008L7.45419 9.55445L7.22705 9.28187C7.33374 9.22016 7.44215 9.16301 7.55228 9.11044L7.6125 9.08301L7.64004 9.11044H7.98419V9.11901L8.1924 9.36245H8.06507L7.93773 9.20816H7.72952L8.03581 9.6076L8.1012 9.7036H8.44536V9.71217L8.61743 9.98818H8.48321L8.38169 9.81675H8.17519L8.41954 10.2539L8.47117 10.3585H8.81532V10.3688L8.94954 10.6602H8.81704L8.73445 10.4785H8.52623L8.72412 10.9414L8.76542 11.0494H9.10957V11.0614L9.21798 11.3631H9.08376L9.01837 11.1745H8.81016L8.96847 11.6528L9.00289 11.7625H9.34704V11.7745L9.44168 12.0848H9.30746L9.25412 11.8911H9.04763L9.17496 12.3763L9.20249 12.4911H9.54665V12.5031L9.61376 12.8117H9.4761L9.44168 12.6197H9.22487L9.32983 13.1117L9.35048 13.2249H9.69464V13.2386L9.75142 13.5523H9.61376L9.57934 13.3569H9.37457L9.45717 13.854L9.47438 13.9689H9.81853V13.9792L9.86327 14.2981H9.73077L9.70324 14.0992H9.4933L9.55869 14.5981L9.57246 14.7146H9.91661V14.7249L9.94587 15.0404H9.81337L9.78584 14.8466H9.57934L9.62753 15.3472L9.63785 15.4621H9.982V15.4741L10.0078 15.793H9.87359L9.85811 15.5958H9.65162L9.68775 16.0947V16.213H10.0319V16.225L10.044 16.4718V16.5438H9.90973L9.90113 16.345H9.70324L9.72733 16.8473V16.9639H10.0715V16.9759V17.2227L10.0801 17.2964Z" fill="#077534"/>
<path d="M2.92531 7.40026C4.87552 5.45161 7.26452 4.48015 10.0923 4.48586C12.9041 4.48586 15.2833 5.4459 17.2301 7.36597C19.1768 9.28604 20.1519 11.6861 20.1554 14.5662C20.1554 17.4235 19.1803 19.8173 17.2301 21.7476C15.2799 23.678 12.8989 24.6386 10.0872 24.6295C7.27427 24.6295 4.88985 23.6688 2.93391 21.7476C0.977971 19.8264 0 17.4298 0 14.5577C0 11.7336 0.975103 9.34776 2.92531 7.40026ZM6.13799 18.811C6.64873 19.3413 7.26386 19.7609 7.94488 20.0435C8.62589 20.3261 9.35813 20.4656 10.0958 20.4533C10.8341 20.4715 11.5681 20.3363 12.251 20.0561C12.9339 19.776 13.5507 19.3572 14.0621 18.8264C15.1187 17.7406 15.6464 16.3177 15.6452 14.5577C15.6452 12.8147 15.0912 11.3953 13.983 10.2992C13.4793 9.77657 12.8742 9.36145 12.2045 9.07911C11.5348 8.79677 10.8144 8.65311 10.0872 8.65687C9.34959 8.64496 8.61747 8.78465 7.93651 9.06723C7.25556 9.3498 6.64038 9.76919 6.12938 10.2992C5.03956 11.3953 4.49465 12.8147 4.49465 14.5577C4.49465 16.3006 5.03956 17.7201 6.12938 18.8161" fill="#BE1732"/>
</g>

</svg>
